<svg id="Layer_1" enable-background="new 0 0 512 512" height="512" viewBox="0 0 512 512" width="512" xmlns="http://www.w3.org/2000/svg"><g><path d="m390 56h-360c-11.046 0-20 8.954-20 20v260c0 11.046 8.954 20 20 20h360c11.046 0 20-8.954 20-20v-260c0-11.046-8.954-20-20-20z" fill="#fff"/><path d="m250 416v-60h-80v60" fill="#cecdf3"/><path d="m410 296v40c0 11.05-8.95 20-20 20h-360c-11.05 0-20-8.95-20-20v-40z" fill="#e6e6f9"/><path d="m130 416h160v40h-160z" fill="#e6e6f9"/><path d="m50 86h320v30h-320z" fill="#ccf5fc"/><path d="m50 136h140v60h-140z" fill="#f8e3ee"/><path d="m230 136h140v60h-140z" fill="#f8e3ee"/><path d="m220 322c0 5.523-4.477 10-10 10-13.265-.527-13.261-19.475 0-20 5.523 0 10 4.477 10 10z" fill="#fff"/><g><path d="m482 456h-80c-11.046 0-20-8.954-20-20v-160c0-11.046 8.954-20 20-20h80c11.046 0 20 8.954 20 20v160c0 11.046-8.954 20-20 20z" fill="#fff"/><path d="m502 416v20c0 11.05-8.95 20-20 20h-80c-11.05 0-20-8.95-20-20v-20z" fill="#cecdf3"/><path d="m402 286h80v20h-80z" fill="#ccf5fc"/><path d="m402 316h80v50h-80z" fill="#f8e3ee"/><g fill="#b578d3"><path d="m180 216h-120c-13.268.528-13.258 19.476 0 20h120c13.268-.528 13.258-19.476 0-20z"/><path d="m180 256h-120c-13.268.528-13.258 19.476 0 20h120c13.268-.528 13.258-19.476 0-20z"/><path d="m362 216h-122c-13.268.528-13.258 19.476 0 20h122c13.268-.528 13.258-19.476 0-20z"/><path d="m342 256h-102c-13.268.528-13.258 19.476 0 20h102c13.268-.528 13.258-19.476 0-20z"/><path d="m482 246h-62v-170c0-16.542-13.458-30-30-30h-360c-16.542 0-30 13.458-30 30v260c0 16.542 13.458 30 30 30h130v40h-30c-5.523 0-10 4.478-10 10v40c0 5.522 4.477 10 10 10h160c5.523 0 10-4.478 10-10v-40c0-5.522-4.477-10-10-10h-30v-40h112v70c0 16.542 13.458 30 30 30h80c16.542 0 30-13.458 30-30v-160c0-16.542-13.458-30-30-30zm-202 200h-140v-20h140zm-40-40h-60v-40h60zm-210-60c-5.514 0-10-4.486-10-10v-260c0-5.514 4.486-10 10-10h360c5.514 0 10 4.486 10 10v170.066c-15.613 1.032-28 14.063-28 29.934v70zm462 90c0 5.514-4.486 10-10 10h-80c-5.514 0-10-4.486-10-10v-160c0-5.514 4.486-10 10-10h80c5.514 0 10 4.486 10 10z"/><path d="m472 376h-60c-13.268.528-13.258 19.476 0 20h60c13.268-.528 13.258-19.476 0-20z"/></g></g></g></svg>