<?xml version="1.0"?>
<svg xmlns="http://www.w3.org/2000/svg" xmlns:xlink="http://www.w3.org/1999/xlink" xmlns:svgjs="http://svgjs.com/svgjs" version="1.1" width="512" height="512" x="0" y="0" viewBox="0 0 512 512" style="enable-background:new 0 0 512 512" xml:space="preserve" class=""><g><g xmlns="http://www.w3.org/2000/svg"><circle cx="256" cy="256" fill="#0052be" r="256" data-original="#0052be" style="" class=""/><path d="m256 0v512c141.385 0 256-114.615 256-256s-114.615-256-256-256z" fill="#00337a" data-original="#00337a" style="" class=""/><g><g><path d="m378.5 151h-200c-8.284 0-15-6.716-15-15s6.716-15 15-15h200c8.284 0 15 6.716 15 15s-6.716 15-15 15z" fill="#c71eb5" data-original="#fff16b" style="" class=""/><circle cx="128.5" cy="136" fill="#c71eb5" r="15" data-original="#fff16b" style="" class=""/><path d="m378.5 211h-200c-8.284 0-15-6.716-15-15s6.716-15 15-15h200c8.284 0 15 6.716 15 15s-6.716 15-15 15z" fill="#f9f9f9" data-original="#f9f9f9" style="" class=""/><circle cx="128.5" cy="196" fill="#f9f9f9" r="15" data-original="#f9f9f9" style="" class=""/><path d="m378.5 271h-200c-8.284 0-15-6.716-15-15s6.716-15 15-15h200c8.284 0 15 6.716 15 15s-6.716 15-15 15z" fill="#1697c1" data-original="#bceaf9" style="" class=""/><circle cx="128.5" cy="256" fill="#1697c1" r="15" data-original="#bceaf9" style="" class=""/><path d="m378.5 331h-200c-8.284 0-15-6.716-15-15s6.716-15 15-15h200c8.284 0 15 6.716 15 15s-6.716 15-15 15z" fill="#f9f9f9" data-original="#f9f9f9" style="" class=""/><circle cx="128.5" cy="316" fill="#f9f9f9" r="15" data-original="#f9f9f9" style="" class=""/><g fill="#ff6b6b"><path d="m378.5 391h-200c-8.284 0-15-6.716-15-15s6.716-15 15-15h200c8.284 0 15 6.716 15 15s-6.716 15-15 15z" fill="#4518c1" data-original="#ff6b6b" style="" class=""/><circle cx="128.5" cy="376" r="15" fill="#4518c1" data-original="#ff6b6b" style="" class=""/></g></g></g><g><path d="m393.5 136c0-8.284-6.716-15-15-15h-122.5v30h122.5c8.284 0 15-6.716 15-15z" fill="#c126a2" data-original="#ffb454" style="" class=""/><path d="m393.5 196c0-8.284-6.716-15-15-15h-122.5v30h122.5c8.284 0 15-6.716 15-15z" fill="#e2dff4" data-original="#e2dff4" style="" class=""/><path d="m393.5 256c0-8.284-6.716-15-15-15h-122.5v30h122.5c8.284 0 15-6.716 15-15z" fill="#4684bb" data-original="#8bb9ff" style="" class=""/><path d="m393.5 316c0-8.284-6.716-15-15-15h-122.5v30h122.5c8.284 0 15-6.716 15-15z" fill="#e2dff4" data-original="#e2dff4" style="" class=""/><path d="m393.5 376c0-8.284-6.716-15-15-15h-122.5v30h122.5c8.284 0 15-6.716 15-15z" fill="#3f14b5" data-original="#ff1f3d" style="" class=""/></g></g></g></svg>
