<svg id="line" height="512" viewBox="0 0 64 64" width="512" xmlns="http://www.w3.org/2000/svg"><g fill="#c4a2fc"><path d="m21.5 43h-7a2 2 0 0 0 -2 2v18a1 1 0 0 0 1 1h8a1 1 0 0 0 1-1v-19a1 1 0 0 0 -1-1z"/><rect height="17" rx="1" width="10" x="25.5" y="47"/><rect height="25" rx="1" width="10" x="38.5" y="39"/><rect height="33" rx="1" width="10" x="51.5" y="31"/><path d="m17.5 40a2.988 2.988 0 0 0 2.4-1.216l7.615 2.343a2.995 2.995 0 0 0 5.985-.127 2.964 2.964 0 0 0 -.069-.629l8.2-5.045a2.968 2.968 0 0 0 1.869.674 3 3 0 0 0 3-3 2.964 2.964 0 0 0 -.069-.629l8.2-5.045a2.968 2.968 0 0 0 1.869.674 3 3 0 1 0 -3-3 2.964 2.964 0 0 0 .069.629l-8.2 5.045a2.968 2.968 0 0 0 -1.869-.674 3 3 0 0 0 -3 3 2.964 2.964 0 0 0 .069.629l-8.2 5.045a2.956 2.956 0 0 0 -4.269.542l-7.615-2.343a2.995 2.995 0 1 0 -2.985 3.127z"/></g><path d="m35.078 0a16.978 16.978 0 0 0 -13.942 26.7l-1.744 1.744a3 3 0 0 0 -3.406.578l-12.02 12.02a5 5 0 0 0 7.07 7.07l12.023-12.02a3 3 0 0 0 .575-3.405l1.745-1.745a16.993 16.993 0 1 0 9.699-30.942zm-13.434 34.678-12.022 12.022a3.072 3.072 0 0 1 -4.242 0 3 3 0 0 1 0-4.242l12.02-12.022a1 1 0 0 1 1.414 0l2.829 2.829a1 1 0 0 1 .001 1.413zm.707-3.535-1.415-1.415 1.453-1.454a17.176 17.176 0 0 0 1.411 1.415zm12.727.857a15 15 0 1 1 15-15 15.017 15.017 0 0 1 -15 15z" fill="#151a6a"/><path d="m35.078 4a13 13 0 1 0 13 13 13.015 13.015 0 0 0 -13-13zm0 24a11 11 0 1 1 11-11 11.013 11.013 0 0 1 -11 11z" fill="#151a6a"/><path d="m30.492 16.414 4-4a1 1 0 0 0 -1.414-1.414l-4 4a1 1 0 0 0 1.414 1.414z" fill="#151a6a"/><path d="m40.785 11.293a1 1 0 0 0 -1.414 0l-10 10a1 1 0 0 0 1.414 1.414l10-10a1 1 0 0 0 0-1.414z" fill="#151a6a"/><path d="m39.664 17.586-4 4a1 1 0 0 0 1.414 1.414l4-4a1 1 0 0 0 -1.414-1.414z" fill="#151a6a"/></svg>