<?xml version="1.0" encoding="iso-8859-1"?>
<!-- Generator: Adobe Illustrator 22.1.0, SVG Export Plug-In . SVG Version: 6.00 Build 0)  -->
<svg xmlns="http://www.w3.org/2000/svg" xmlns:xlink="http://www.w3.org/1999/xlink" version="1.1" id="Layer_1_1_" x="0px" y="0px" viewBox="0 0 64 64" style="enable-background:new 0 0 64 64;" xml:space="preserve" width="512" height="512">
<g>
	<path d="M61,18v31H3V22c0-1.654,1.346-3,3-3h26v-2H6c-2.757,0-5,2.243-5,5v30c0,2.757,2.243,5,5,5h13v4h-4v2h34v-2h-4v-4h13   c2.757,0,5-2.243,5-5V18H61z M43,61H21v-4h22V61z M58,55H6c-1.654,0-3-1.346-3-3v-1h58v1C61,53.654,59.654,55,58,55z"/>
	<g>
		<rect x="13" y="24" style="fill:#F0BC5E;" width="19" height="20"/>
	</g>
	<g>
		<path style="fill:#F0BC5E;" d="M60.541,13.459c-0.322-1.234-0.813-2.416-1.466-3.525l1.162-2.323L56.39,3.763l-2.323,1.162    c-1.109-0.652-2.291-1.144-3.525-1.466L49.721,1h-5.441l-0.82,2.459c-1.234,0.322-2.416,0.813-3.525,1.466L37.61,3.763    L33.763,7.61l1.162,2.323c-0.652,1.109-1.144,2.291-1.466,3.525L31,14.279v5.441l2.459,0.82c0.322,1.234,0.813,2.416,1.466,3.525    l-1.162,2.323l3.848,3.848l2.323-1.162c1.109,0.652,2.291,1.144,3.525,1.466L44.279,33h5.441l0.82-2.459    c1.234-0.322,2.416-0.813,3.525-1.466l2.323,1.162l3.848-3.848l-1.162-2.323c0.652-1.109,1.144-2.291,1.466-3.525L63,19.721    v-5.441L60.541,13.459z M47,20c-1.657,0-3-1.343-3-3s1.343-3,3-3s3,1.343,3,3S48.657,20,47,20z"/>
	</g>
	<g>
		<path d="M47,27c-5.514,0-10-4.486-10-10S41.486,7,47,7s10,4.486,10,10S52.514,27,47,27z M47,9c-4.411,0-8,3.589-8,8s3.589,8,8,8    s8-3.589,8-8S51.411,9,47,9z"/>
	</g>
	<g>
		<path d="M47,21c-2.206,0-4-1.794-4-4s1.794-4,4-4s4,1.794,4,4S49.206,21,47,21z M47,15c-1.103,0-2,0.897-2,2s0.897,2,2,2    s2-0.897,2-2S48.103,15,47,15z"/>
	</g>
	<g>
		<path d="M11,36h-1c-1.654,0-3-1.346-3-3v-1c0-1.103-0.897-2-2-2v-2c1.103,0,2-0.897,2-2v-1c0-1.654,1.346-3,3-3h1v2h-1    c-0.551,0-1,0.448-1,1v1c0,1.193-0.525,2.267-1.357,3C8.475,29.733,9,30.807,9,32v1c0,0.552,0.449,1,1,1h1V36z"/>
	</g>
	<g>
		<path d="M35,45h-1v-2h1c0.551,0,1-0.448,1-1v-1c0-1.193,0.525-2.267,1.357-3C36.525,37.267,36,36.193,36,35v-1    c0-0.552-0.449-1-1-1h-1v-2h1c1.654,0,3,1.346,3,3v1c0,1.103,0.897,2,2,2v2c-1.103,0-2,0.897-2,2v1C38,43.654,36.654,45,35,45z"/>
	</g>
	<g>
		<rect x="13" y="23" width="19" height="2"/>
	</g>
	<g>
		<rect x="17" y="27" width="15" height="2"/>
	</g>
	<g>
		<rect x="13" y="27" width="2" height="2"/>
	</g>
	<g>
		<rect x="13" y="31" width="19" height="2"/>
	</g>
	<g>
		<rect x="13" y="35" width="19" height="2"/>
	</g>
	<g>
		<rect x="30" y="39" width="2" height="2"/>
	</g>
	<g>
		<rect x="13" y="39" width="15" height="2"/>
	</g>
	<g>
		<rect x="13" y="43" width="19" height="2"/>
	</g>
</g>
</svg>
